<svg version="1" xmlns="http://www.w3.org/2000/svg" width="400" height="400" viewBox="0 0 300.000000 300.000000"><path d="M129.1 60.7c-.6 4.8-1.3 11.9-1.5 15.6-.3 6.5-.5 6.9-3.6 8.8-2.7 1.7-3.1 2.5-2.8 5 .4 2.6-.1 3.3-4.4 6-14.1 9.1-22.6 25.4-24.9 48-2.8 28.3 5.6 60 20.8 78.6l3.6 4.4-4.2 3.5c-2.2 2-4.1 4.3-4.1 5.2 0 1.2-2 2.4-6.5 4-3.6 1.3-8.1 3.5-10.1 4.8l-3.5 2.4-3-2.1c-4.5-3.2-11.3-4.9-19.3-4.9-19.5 0-35.3 9.8-43.4 26.7-3.3 7.1-3.7 8.7-4 17.8-.2 5.6.1 11.2.7 12.8L20 300h280v-55l-7-3.5c-20.7-10.4-43.2-8-59.1 6.3-3.4 3-4.9 3.9-4.9 2.8 0-3.1-5-11.5-8.2-13.9-3.6-2.7-11.6-5.7-15.2-5.7-1.5 0-3.3-1.3-5.1-3.6-3.1-4.1-8.7-6.9-15.7-7.9l-4.7-.7 2.3-3.2c4-5.2 7.4-13.7 9-22.2 1.3-7.2 1.3-11 0-33.7-1.3-23.6-2-28.8-5.5-41.7-1.6-5.8-7.2-15.5-11.8-20.3-4-4.3-10.3-7.9-17.1-9.7-2.4-.7-5-2-5.8-3.1-.7-1-2.7-2.2-4.4-2.7-2.9-.7-3.4-1.5-7-11.7-4.1-11.8-6.9-17.7-8.5-18.2-.6-.2-1.5 3.3-2.2 8.4zm7.3 7.6c1.4 3.7 2.6 7.6 2.6 8.7 0 1.1.5 2 1 2 1.5 0 1.2 2.9-.4 4.6-.8.8-3.3 1.4-5.5 1.4H130v-7.8c0-9.4 2-20.6 3.1-17.6.4 1 1.9 4.9 3.3 8.7zm21.3 58.9c3.4 3.2 3 7.3-1.1 11.4-6 6-14.5 4.2-16.6-3.5-1-3.8-.6-6.4 1.3-8.9.6-.7 3.4-1.2 7.5-1.2 5.4 0 7 .4 8.9 2.2zm-30.8 3.4c2.6 3.3 2.6 5 .2 9-2.7 4.4-7.7 6-12.5 4-3.8-1.6-5-4.1-4.4-9.6.3-2.9.8-3.5 4.3-4.6 6.8-2 10.1-1.7 12.4 1.2z"/><path d="M147.7 130.6c-1.2 1.2-.8 4.1.7 5.3 1.7 1.4 3.9-.9 3.4-3.6-.3-1.8-2.9-2.9-4.1-1.7zM118.2 133.6c-1.3 2.4-.3 5.4 1.8 5.4 1 0 2-.8 2.3-1.9.5-2-.9-5.1-2.3-5.1-.5 0-1.3.7-1.8 1.6z"/></svg>